<?xml version="1.0" encoding="utf-8"?>
<svg version="1.1" xmlns:xlink="http://www.w3.org/1999/xlink" width="7px" height="10px" preserveAspectRatio="xMidYMin meet" viewBox="2245 1248  5 10" xmlns="http://www.w3.org/2000/svg">
  <path d="M 2251 1253  A 2 2 0 0 1 2249 1251 L 2249 1216  A 5 5 0 0 0 2244 1211 L 1433 1211  A 5 5 0 0 1 1428 1206 L 1428 393  A 5 5 0 0 0 1423 388 L 1416 388  A 3 3 0 0 0 1413 385 A 3 3 0 0 0 1410 388 L 1403 388  A 3 3 0 0 0 1400 385 A 3 3 0 0 0 1397 388 L 1362 388  " stroke-width="2" stroke="#0099cc" fill="none" />
</svg>